# Blender 4.2.1 LTS
# www.blender.org
mtllib nav-arrow.mtl
o Cube
v 0.000000 1.000000 0.000000
v 1.000000 -1.000000 -0.102566
v 0.000000 1.000000 0.000000
v 1.000000 -1.000000 0.102566
v 0.000000 1.000000 0.000000
v -1.000000 -1.000000 -0.102566
v 0.000000 1.000000 0.000000
v -1.000000 -1.000000 0.102566
v 0.000000 -0.502885 -0.505239
v 0.000000 1.000000 0.000000
v 0.000000 -0.502885 0.505239
v 0.000000 1.000000 0.000000
vn -0.0000 1.0000 -0.0000
vn -0.4752 0.2804 0.8340
vn -0.8944 0.4472 -0.0000
vn -0.4451 -0.8955 -0.0000
vn 0.8944 0.4472 -0.0000
vn 0.4752 0.2804 -0.8340
vn -0.4752 0.2804 -0.8340
vn 0.4451 -0.8955 -0.0000
vn 0.4752 0.2804 0.8340
vt 0.625000 0.000000
vt 0.375000 0.875000
vt 0.625000 0.812500
vt 0.625000 1.000000
vt 0.375000 1.000000
vt 0.375000 0.000000
vt 0.625000 0.250000
vt 0.375000 0.250000
vt 0.250000 0.500000
vt 0.375000 0.500000
vt 0.375000 0.750000
vt 0.250000 0.750000
vt 0.625000 0.500000
vt 0.625000 0.750000
vt 0.375000 0.375000
vt 0.625000 0.312500
vt 0.125000 0.500000
vt 0.125000 0.750000
s 0
usemtl Material
f 12/1/1 5/1/1 7/1/1 10/1/1
f 11/2/2 10/3/2 7/4/2 8/5/2
f 8/6/3 7/1/3 5/7/3 6/8/3
f 9/9/4 2/10/4 4/11/4 11/12/4
f 2/10/5 1/13/5 3/14/5 4/11/5
f 9/15/6 12/16/6 1/13/6 2/10/6
f 6/8/7 5/7/7 12/16/7 9/15/7
f 6/17/8 9/9/8 11/12/8 8/18/8
f 4/11/9 3/14/9 10/3/9 11/2/9
f 1/13/1 12/13/1 10/13/1 3/13/1
